<svg xmlns="http://www.w3.org/2000/svg" viewBox="0 0 512 512" role="img" aria-label="WTS Notifications"><rect width="512" height="512" rx="112" fill="#0b1f3a"/><circle cx="256" cy="256" r="174" fill="#0f7c5c" opacity=".22"/><path d="M142 169h228a32 32 0 0 1 32 32v142a32 32 0 0 1-32 32H235l-72 52 16-52h-37a32 32 0 0 1-32-32V201a32 32 0 0 1 32-32Z" fill="#fff"/><path d="M164 224h184M164 272h145M164 320h104" stroke="#0f7c5c" stroke-width="24" stroke-linecap="round"/><circle cx="367" cy="163" r="52" fill="#d6a84f"/><path d="M367 133v60M337 163h60" stroke="#0b1f3a" stroke-width="18" stroke-linecap="round"/></svg>
